<?xml version="1.0" encoding="UTF-8" standalone="no"?>
<!-- Created with Inkscape (http://www.inkscape.org/) -->

<svg
   xmlns:dc="http://purl.org/dc/elements/1.1/"
   xmlns:cc="http://creativecommons.org/ns#"
   xmlns:rdf="http://www.w3.org/1999/02/22-rdf-syntax-ns#"
   xmlns:svg="http://www.w3.org/2000/svg"
   xmlns="http://www.w3.org/2000/svg"
   xmlns:sodipodi="http://sodipodi.sourceforge.net/DTD/sodipodi-0.dtd"
   xmlns:inkscape="http://www.inkscape.org/namespaces/inkscape"
   width="64px"
   height="64px"
   viewBox="0 0 64 64"
   version="1.1"
   id="SVGRoot"
   inkscape:version="0.92.1 r15371"
   sodipodi:docname="logo.svg">
  <sodipodi:namedview
     id="base"
     pagecolor="#ffffff"
     bordercolor="#666666"
     borderopacity="1.0"
     inkscape:pageopacity="0.0"
     inkscape:pageshadow="2"
     inkscape:zoom="4.0000002"
     inkscape:cx="25.726934"
     inkscape:cy="-9.1422541"
     inkscape:document-units="px"
     inkscape:current-layer="layer3"
     showgrid="false"
     inkscape:window-width="1920"
     inkscape:window-height="1001"
     inkscape:window-x="-9"
     inkscape:window-y="-9"
     inkscape:window-maximized="1"
     inkscape:grid-bbox="true"
     inkscape:snap-object-midpoints="true"
     inkscape:snap-others="true"
     inkscape:object-nodes="true"
     inkscape:object-paths="false"
     inkscape:snap-nodes="true">
    <inkscape:grid
       type="xygrid"
       id="grid5607" />
  </sodipodi:namedview>
  <defs
     id="defs5048">
    <inkscape:path-effect
       effect="bspline"
       id="path-effect4556"
       is_visible="true"
       weight="33.333333"
       steps="2"
       helper_size="0"
       apply_no_weight="true"
       apply_with_weight="true"
       only_selected="false" />
    <inkscape:path-effect
       effect="bspline"
       id="path-effect4910"
       is_visible="true"
       weight="33.333333"
       steps="2"
       helper_size="0"
       apply_no_weight="true"
       apply_with_weight="true"
       only_selected="false" />
    <inkscape:path-effect
       only_selected="false"
       apply_with_weight="true"
       apply_no_weight="true"
       helper_size="0"
       steps="2"
       weight="33.333333"
       is_visible="true"
       id="path-effect4906"
       effect="bspline" />
    <inkscape:path-effect
       effect="bspline"
       id="path-effect4898"
       is_visible="true"
       weight="33.333333"
       steps="2"
       helper_size="0"
       apply_no_weight="true"
       apply_with_weight="true"
       only_selected="false" />
    <inkscape:path-effect
       only_selected="false"
       apply_with_weight="true"
       apply_no_weight="true"
       helper_size="0"
       steps="2"
       weight="33.333333"
       is_visible="true"
       id="path-effect4858"
       effect="bspline" />
    <inkscape:path-effect
       effect="bspline"
       id="path-effect4838"
       is_visible="true"
       weight="33.333333"
       steps="2"
       helper_size="0"
       apply_no_weight="true"
       apply_with_weight="true"
       only_selected="false" />
    <inkscape:path-effect
       effect="bspline"
       id="path-effect4810"
       is_visible="true"
       weight="33.333333"
       steps="2"
       helper_size="0"
       apply_no_weight="true"
       apply_with_weight="true"
       only_selected="false" />
    <inkscape:path-effect
       effect="bspline"
       id="path-effect4806"
       is_visible="true"
       weight="33.333333"
       steps="2"
       helper_size="0"
       apply_no_weight="true"
       apply_with_weight="true"
       only_selected="false" />
    <inkscape:path-effect
       effect="bspline"
       id="path-effect4802"
       is_visible="true"
       weight="33.333333"
       steps="2"
       helper_size="0"
       apply_no_weight="true"
       apply_with_weight="true"
       only_selected="false" />
    <inkscape:path-effect
       only_selected="false"
       apply_with_weight="true"
       apply_no_weight="true"
       helper_size="0"
       steps="2"
       weight="33.333333"
       is_visible="true"
       id="path-effect4795"
       effect="bspline" />
    <inkscape:path-effect
       effect="bspline"
       id="path-effect4791"
       is_visible="true"
       weight="33.333333"
       steps="2"
       helper_size="0"
       apply_no_weight="true"
       apply_with_weight="true"
       only_selected="false" />
    <inkscape:path-effect
       only_selected="false"
       apply_with_weight="true"
       apply_no_weight="true"
       helper_size="0"
       steps="2"
       weight="33.333333"
       is_visible="true"
       id="path-effect4689"
       effect="bspline" />
    <inkscape:path-effect
       effect="bspline"
       id="path-effect4671"
       is_visible="true"
       weight="33.333333"
       steps="2"
       helper_size="0"
       apply_no_weight="true"
       apply_with_weight="true"
       only_selected="false" />
    <inkscape:path-effect
       effect="bspline"
       id="path-effect4667"
       is_visible="true"
       weight="33.333333"
       steps="2"
       helper_size="0"
       apply_no_weight="true"
       apply_with_weight="true"
       only_selected="false" />
    <inkscape:path-effect
       only_selected="false"
       apply_with_weight="true"
       apply_no_weight="true"
       helper_size="0"
       steps="2"
       weight="33.333333"
       is_visible="true"
       id="path-effect4663"
       effect="bspline" />
    <inkscape:path-effect
       effect="bspline"
       id="path-effect4659"
       is_visible="true"
       weight="33.333333"
       steps="2"
       helper_size="0"
       apply_no_weight="true"
       apply_with_weight="true"
       only_selected="false" />
    <inkscape:path-effect
       effect="bspline"
       id="path-effect4655"
       is_visible="true"
       weight="33.333333"
       steps="2"
       helper_size="0"
       apply_no_weight="true"
       apply_with_weight="true"
       only_selected="false" />
    <inkscape:path-effect
       effect="bspline"
       id="path-effect4642"
       is_visible="true"
       weight="33.333333"
       steps="2"
       helper_size="0"
       apply_no_weight="true"
       apply_with_weight="true"
       only_selected="false" />
    <inkscape:perspective
       sodipodi:type="inkscape:persp3d"
       inkscape:vp_x="0 : 32 : 1"
       inkscape:vp_y="0 : 1000 : 0"
       inkscape:vp_z="64 : 32 : 1"
       inkscape:persp3d-origin="32 : 21.333333 : 1"
       id="perspective4612" />
    <inkscape:path-effect
       effect="bspline"
       id="path-effect4604"
       is_visible="true"
       weight="33.333333"
       steps="2"
       helper_size="0"
       apply_no_weight="true"
       apply_with_weight="true"
       only_selected="false" />
  </defs>
  <metadata
     id="metadata5051">
    <rdf:RDF>
      <cc:Work
         rdf:about="">
        <dc:format>image/svg+xml</dc:format>
        <dc:type
           rdf:resource="http://purl.org/dc/dcmitype/StillImage" />
        <dc:title />
      </cc:Work>
    </rdf:RDF>
  </metadata>
  <g
     id="layer1"
     inkscape:groupmode="layer"
     inkscape:label="Layer 1"
     style="display:none"
     sodipodi:insensitive="true">
    <g
       id="g4638"
       transform="matrix(1.1159903,0,0,1.1159903,-4.969757,-7.1153461)">
      <path
         inkscape:connector-curvature="0"
         id="path5624-39"
         d="M 30.315552,58.662853 Z"
         style="fill:none;stroke:#000000;stroke-width:1.05189657px;stroke-linecap:butt;stroke-linejoin:miter;stroke-opacity:1" />
      <path
         style="fill:#ffffff;fill-opacity:1;stroke:#000000;stroke-width:1.0522368;stroke-linecap:butt;stroke-linejoin:round;stroke-miterlimit:4;stroke-dasharray:none;stroke-opacity:1"
         d="m 31.367452,58.662853 h -2.1038 l -8.49069,-8.415173 -15.7029198,-6.311378 7.3632698,-15.77845 3.15569,-3.15569 -2.10379,-5.259483 v -7.363277 h 5.25948 l 6.31138,5.259484 6.31138,-1.051898 v 0 l 6.31139,1.051898 6.311368,-5.259484 h 5.25949 v 7.363277 l -2.1038,5.259483 3.155691,3.15569 7.363279,15.77845 -15.702924,6.311378 -7.438804,8.415173 z"
         id="path5628-4"
         inkscape:connector-curvature="0"
         sodipodi:nodetypes="cccccccccccccccccccccc" />
      <path
         sodipodi:nodetypes="ccccccccccc"
         inkscape:connector-curvature="0"
         id="path5632-9"
         d="m 49.2497,39.728714 -4.20759,-4.207586 -3.155691,-2.103793 h -4.207577 l -3.1557,3.15569 v 7.363277 l 2.1038,1.615605 3.643873,3.643877 0.563704,2.103792 12.860023,-5.95549 z"
         style="fill:#000000;fill-opacity:1;stroke:#000000;stroke-width:1.0522368;stroke-linecap:butt;stroke-linejoin:round;stroke-miterlimit:4;stroke-dasharray:none;stroke-opacity:1" />
      <path
         style="fill:#150000;fill-opacity:1;stroke:#000000;stroke-width:0.38825902;stroke-linecap:butt;stroke-linejoin:round;stroke-miterlimit:4;stroke-dasharray:none;stroke-opacity:1"
         d="m 17.226492,17.282821 0.91289,1.82578 -0.91289,3.651562 h 0.91289 l 2.73867,-2.738671 v -0.912891 l -1.82578,-1.82578 -1.82578,-0.91289 z"
         id="path5642-1"
         inkscape:connector-curvature="0"
         sodipodi:nodetypes="ccccccccc" />
      <path
         sodipodi:nodetypes="ccccccccc"
         inkscape:connector-curvature="0"
         id="path5644-7"
         d="m 30.836452,50.227456 -1.45745,2.18616 v 2.186161 l 1.45745,1.457441 h 2.18616 l 1.45743,-1.457441 v -2.186161 l -1.45743,-2.18616 z"
         style="fill:#070707;fill-opacity:1;stroke:#000000;stroke-width:1.50906062;stroke-linecap:butt;stroke-linejoin:round;stroke-miterlimit:4;stroke-dasharray:none;stroke-opacity:1" />
      <path
         style="fill:#000000;fill-opacity:1;stroke:#000000;stroke-width:1.05189657px;stroke-linecap:butt;stroke-linejoin:round;stroke-opacity:1"
         d="m 14.537112,39.728714 4.20758,-4.207586 3.15569,-2.103793 h 4.20759 l 3.15568,3.15569 v 7.363277 l -2.10379,1.615605 -3.64387,3.643877 -0.87128,2.453308 -12.63153,-6.067748 z"
         id="path5661-4"
         inkscape:connector-curvature="0"
         sodipodi:nodetypes="ccccccccccc" />
      <path
         style="fill:#ffffff;fill-opacity:1;stroke:#ffffff;stroke-width:1.61790586;stroke-linecap:butt;stroke-linejoin:round;stroke-miterlimit:4;stroke-dasharray:none;stroke-opacity:1"
         d="m 24.495082,36.7163 1.32316,1.323161 V 40.0242 l -1.32316,1.32316 h -1.98474 l -1.32316,-1.32316 v -1.984739 l 1.32316,-1.323161 z"
         id="path5663-5"
         inkscape:connector-curvature="0"
         sodipodi:nodetypes="ccccccccc" />
      <path
         sodipodi:nodetypes="ccccccccc"
         inkscape:connector-curvature="0"
         id="path4528-0"
         d="m 41.182287,36.7163 1.323159,1.323161 V 40.0242 l -1.323159,1.32316 H 39.197549 L 37.874392,40.0242 V 38.039461 L 39.197549,36.7163 Z"
         style="fill:#ffffff;fill-opacity:1;stroke:#ffffff;stroke-width:1.61790586;stroke-linecap:butt;stroke-linejoin:round;stroke-miterlimit:4;stroke-dasharray:none;stroke-opacity:1" />
      <path
         style="fill:none;stroke:#000000;stroke-width:1.05794632px;stroke-linecap:butt;stroke-linejoin:miter;stroke-opacity:1"
         d="M 31.080722,59.037853 Z"
         id="path5624-3-4"
         inkscape:connector-curvature="0" />
    </g>
    <path
       inkscape:connector-curvature="0"
       id="path5732-8-6"
       d="M 137.88867,1.5102713 V 55.504581 H 124.39009 L 105.88677,42.249209 V 23.249208 l 14.99999,-22.0000017 17.00191,-2.999999"
       style="fill:#008080;fill-opacity:1;stroke:none;stroke-width:0.89990515px;stroke-linecap:butt;stroke-linejoin:miter;stroke-opacity:1"
       sodipodi:nodetypes="ccccccc" />
    <path
       style="fill:#c83737;fill-opacity:1;stroke:none;stroke-width:0.89990515px;stroke-linecap:butt;stroke-linejoin:miter;stroke-opacity:1"
       d="M 137.88677,1.5102723 V 55.504582 h 13.49858 l 18.49952,-13.255373 v -19 l -13.99999,-22.0000017 -17.99811,-3"
       id="path5730-7-3"
       inkscape:connector-curvature="0"
       sodipodi:nodetypes="ccccccc" />
    <g
       id="g4583">
      <path
         inkscape:connector-curvature="0"
         id="path5624-39-8"
         d="M 136.06555,52.452176 Z"
         style="fill:none;stroke:#000000;stroke-width:1.05189657px;stroke-linecap:butt;stroke-linejoin:miter;stroke-opacity:1" />
      <path
         style="fill:#ffffff;fill-opacity:1;stroke:#000000;stroke-width:1.0522368;stroke-linecap:butt;stroke-linejoin:round;stroke-miterlimit:4;stroke-dasharray:none;stroke-opacity:1"
         d="m 137.11745,52.452176 h -2.1038 l -8.49069,-8.415173 -15.70292,-6.311378 7.36327,-15.77845 3.15569,-3.15569 -2.10379,-5.259483 V 6.1687238 h 5.25948 l 6.31138,5.2594852 6.31138,-1.051898 v 0 l 6.31139,1.051898 6.31137,-5.2594852 h 5.25949 v 7.3632782 l -2.1038,5.259483 3.15569,3.15569 7.36328,15.77845 -15.70292,6.311378 -7.43881,8.415173 z"
         id="path5628-4-7"
         inkscape:connector-curvature="0"
         sodipodi:nodetypes="cccccccccccccccccccccc" />
      <path
         sodipodi:nodetypes="ccccccccccc"
         inkscape:connector-curvature="0"
         id="path5632-9-7"
         d="m 154.9997,33.518037 -4.20759,-4.207586 -3.15569,-2.103793 h -4.20758 l -3.1557,3.15569 v 7.363277 l 2.1038,1.615605 3.64388,3.643877 0.5637,2.103792 12.86002,-5.95549 z"
         style="fill:#000000;fill-opacity:1;stroke:#000000;stroke-width:1.0522368;stroke-linecap:butt;stroke-linejoin:round;stroke-miterlimit:4;stroke-dasharray:none;stroke-opacity:1" />
      <path
         style="fill:#150000;fill-opacity:1;stroke:#000000;stroke-width:0.38825902;stroke-linecap:butt;stroke-linejoin:round;stroke-miterlimit:4;stroke-dasharray:none;stroke-opacity:1"
         d="m 122.97649,11.072144 0.91289,1.82578 -0.91289,3.651562 h 0.91289 l 2.73867,-2.738671 v -0.912891 l -1.82578,-1.82578 -1.82578,-0.91289 z"
         id="path5642-1-2"
         inkscape:connector-curvature="0"
         sodipodi:nodetypes="ccccccccc" />
      <path
         sodipodi:nodetypes="ccccccccc"
         inkscape:connector-curvature="0"
         id="path5644-7-8"
         d="m 136.58645,44.016779 -1.45745,2.18616 V 48.3891 l 1.45745,1.457441 h 2.18616 l 1.45743,-1.457441 v -2.186161 l -1.45743,-2.18616 z"
         style="fill:#070707;fill-opacity:1;stroke:#000000;stroke-width:1.50906062;stroke-linecap:butt;stroke-linejoin:round;stroke-miterlimit:4;stroke-dasharray:none;stroke-opacity:1" />
      <path
         style="fill:#000000;fill-opacity:1;stroke:#000000;stroke-width:1.05189657px;stroke-linecap:butt;stroke-linejoin:round;stroke-opacity:1"
         d="m 120.28711,33.518037 4.20758,-4.207586 3.15569,-2.103793 h 4.20759 l 3.15568,3.15569 v 7.363277 l -2.10379,1.615605 -3.64387,3.643877 -0.87128,2.453308 -12.63153,-6.067748 z"
         id="path5661-4-7"
         inkscape:connector-curvature="0"
         sodipodi:nodetypes="ccccccccccc" />
      <path
         style="fill:#ffffff;fill-opacity:1;stroke:#ffffff;stroke-width:1.61790586;stroke-linecap:butt;stroke-linejoin:round;stroke-miterlimit:4;stroke-dasharray:none;stroke-opacity:1"
         d="m 130.24508,30.505623 1.32316,1.323161 v 1.984739 l -1.32316,1.32316 h -1.98474 l -1.32316,-1.32316 v -1.984739 l 1.32316,-1.323161 z"
         id="path5663-5-5"
         inkscape:connector-curvature="0"
         sodipodi:nodetypes="ccccccccc" />
      <path
         sodipodi:nodetypes="ccccccccc"
         inkscape:connector-curvature="0"
         id="path4528-0-9"
         d="m 146.93229,30.505623 1.32316,1.323161 v 1.984739 l -1.32316,1.32316 h -1.98474 l -1.32316,-1.32316 v -1.984739 l 1.32316,-1.323161 z"
         style="fill:#ffffff;fill-opacity:1;stroke:#ffffff;stroke-width:1.61790586;stroke-linecap:butt;stroke-linejoin:round;stroke-miterlimit:4;stroke-dasharray:none;stroke-opacity:1" />
      <path
         sodipodi:nodetypes="ccccccccc"
         inkscape:connector-curvature="0"
         id="path4530-2-7"
         d="m 151.51354,11.072144 -0.91289,1.82578 0.91289,3.651562 h -0.91289 l -2.73867,-2.738671 v -0.912891 l 1.82578,-1.82578 1.82578,-0.91289 z"
         style="fill:#150000;fill-opacity:1;stroke:#000000;stroke-width:0.38825902;stroke-linecap:butt;stroke-linejoin:round;stroke-miterlimit:4;stroke-dasharray:none;stroke-opacity:1" />
      <path
         style="fill:none;stroke:#000000;stroke-width:1.05794632px;stroke-linecap:butt;stroke-linejoin:miter;stroke-opacity:1"
         d="M 136.83072,52.827176 Z"
         id="path5624-3-4-2"
         inkscape:connector-curvature="0" />
    </g>
    <path
       style="fill:none;stroke:#000000;stroke-width:0.2;stroke-linecap:butt;stroke-linejoin:miter;stroke-miterlimit:4;stroke-dasharray:none;stroke-opacity:1"
       d="m 30,0 c 0,21.155557 0,41.999 0,52.665675 C 30,63.332349 30,63.665667 30,64"
       id="path4640"
       inkscape:connector-curvature="0"
       inkscape:path-effect="#path-effect4642"
       inkscape:original-d="m 30,0 c 0.001,21.155557 0.001,41.999 0,63 0.001,0.332349 0.001,0.665667 0,1" />
  </g>
  <g
     inkscape:groupmode="layer"
     id="layer3"
     inkscape:label="Layer 2">
    <path
       sodipodi:nodetypes="ccccccccccccccccccccccccccccccccccc"
       inkscape:original-d="m 32,59 c 0.999,-10e-4 1.978117,-10e-4 3,0 2.665667,-3.667667 5.332333,-7.334333 8,-11 6.332514,-2.000426 12.659496,-3.99842 19,-6 v 0 c 0,0 -4.665667,-10.001 -7,-15 -1.665667,-2.334333 -3.332333,-4.667666 -5,-7 v 0 c 1.00047,-1.666784 2.00047,-3.333451 3,-5 -0.33251,-2.002059 -0.665721,-4.001324 -1,-6 0.665667,-1.001 2,-3 2,-3 0,0 -2.000239,-0.001 -3,0 -2.336109,-0.001 -4.667052,-0.001 -7,0 -1.666781,2.3338939 -3.333009,4.666612 -5,7 v 0 c -0.999,-0.667667 -1.999,-1.334333 -3,-2 -1.332334,-10e-4 -2.665666,-10e-4 -4,0 v 0 c -1.334334,-10e-4 -2.667666,-10e-4 -4,0 -1.001,0.665667 -2.001,1.332333 -3,2 v 0 C 23.333009,10.666612 21.666781,8.3338939 20,6 17.667052,5.999 15.336109,5.999 13,6 12.000239,5.999 10,6 10,6 c 0,0 1.334333,1.999 2,3 -0.334279,1.998676 -0.66749,3.997941 -1,6 0.99953,1.666549 1.99953,3.333216 3,5 v 0 c -1.667667,2.332334 -3.334333,4.665667 -4.9999997,7 -2.334333,4.999 -7,15 -7,15 v 0 C 8.3405043,44.00158 14.667486,45.999574 21,48 c 2.667667,3.665667 5.334333,7.332333 8,11 1.021883,-10e-4 2.001,-10e-4 3,0 z"
       inkscape:path-effect="#path-effect4663"
       inkscape:connector-curvature="0"
       id="path4661"
       d="m 32,59 c 0.999,0 1.978117,0 3.822457,-1.833423 1.84434,-1.833422 4.511006,-5.500088 9.01063,-8.333234 4.499624,-2.833146 10.826606,-4.831141 13.996759,-5.832242 C 62,42 62,42 62,42 59.666667,37 57.333129,31.999562 55.333164,28.33302 53.333198,24.666478 51.666532,22.333145 50.833266,21.166572 50,20 50,20 50.500088,19.16652 51.000176,18.33304 52.000176,16.666373 52.333266,14.832251 52.666355,12.99813 52.333144,10.998865 52.499982,9.4993171 52.666821,7.9997691 53.333333,7 54,6 53,6 51.999761,6 50.331826,6 48.663891,6 46.332948,6 44.332989,7.1668793 42.33303,8.3337586 40.666802,10.666477 39.833401,11.833239 39,13 39,13 38.500115,12.666744 38.000231,12.333487 37.000231,11.666821 35.833948,11.33341 34.667666,11 33.334334,11 32.667167,11 32,11 32,11 31.332833,11 c -0.667167,0 -2.000499,0 -3.166781,0.33341 -1.166283,0.333411 -2.166283,1.000077 -2.666167,1.333334 C 25,13 25,13 24.166599,11.833239 23.333198,10.666477 21.66697,8.3337586 19.667011,7.1668793 17.667052,6 15.336109,6 13.668174,6 12.000239,6 11,6 10,6 c 0.666667,1 1.333179,1.9997691 1.500018,3.4993171 0.166838,1.4995479 -0.166373,3.4988129 0.166716,5.3329339 0.33309,1.834122 1.33309,3.500789 1.833178,4.334269 C 14,20 14,20 13.166734,21.166572 12.333468,22.333145 10.666802,24.666478 8.6668366,28.33302 6.6668714,31.999562 4.3333336,37 2.0000003,42 c 0,0 0,0 3.1701537,1.001101 3.1701538,1.001101 9.497135,2.999096 13.996759,5.832242 4.499624,2.833146 7.16629,6.499812 9.01063,8.333234 C 30.021883,59 31.001,59 32,59 Z"
       style="fill:#e3dbdb;stroke:#000000;stroke-width:1px;stroke-linecap:butt;stroke-linejoin:round;stroke-opacity:1"
       inkscape:export-xdpi="141.63943"
       inkscape:export-ydpi="141.63943" />
    <g
       id="g4864"
       transform="translate(2)"
       inkscape:export-xdpi="141.63943"
       inkscape:export-ydpi="141.63943">
      <path
         style="fill:#000000;fill-opacity:1;stroke:#000000;stroke-width:1px;stroke-linecap:butt;stroke-linejoin:miter;stroke-opacity:1"
         d="m 53.831252,43.862164 c -0.02184,-0.17981 -5.831958,-9.86334 -9.532592,-12.193437 -3.700635,-2.330097 -8.101691,-1.991538 -10.267907,0.174585 -2.166217,2.166123 -2.098494,6.160889 -0.898558,8.658531 1.199936,2.497642 3.780476,3.603588 5.121917,4.795312 C 39.595552,46.48888 40.333333,48.333333 41,50 c 2,-1.333333 4.000135,-2.666756 6.167328,-3.666881 2.167194,-1.000125 6.685764,-2.291145 6.663924,-2.470955 z"
         id="path4844"
         inkscape:connector-curvature="0"
         inkscape:path-effect="#path-effect4858"
         inkscape:original-d="M 54,44 C 53.810589,43.681648 48.000471,33.998118 45,29 40.597943,29.337559 36.196887,29.676119 31.79683,30.015678 31.863553,34.009452 31.931277,38.004218 32,42 c 2.332338,0.999002 4.912878,2.104948 7,3 0.595035,1.489087 2,5 2,5 0,0 3.999981,-2.666987 6,-4 2.334333,-0.667667 6.852903,-1.958686 7,-2 z"
         sodipodi:nodetypes="ccczcccc" />
      <circle
         transform="scale(-1,1)"
         style="opacity:1;fill:#ffffff;fill-opacity:0.94029852;stroke:none;stroke-width:0;stroke-linecap:round;stroke-linejoin:round;stroke-miterlimit:4;stroke-dasharray:none;stroke-dashoffset:0;stroke-opacity:1;paint-order:markers fill stroke"
         id="circle4846"
         cx="-39"
         cy="37"
         r="3.5" />
    </g>
    <path
       inkscape:original-d="m 33,48 c 0.667667,0.999 1.333667,1.998 2,3 -10e-4,1 -10e-4,1.999 0,3 -0.668333,0.666333 -1.334333,1.332333 -2,2 -0.355167,0.0094 -0.667667,-10e-4 -1,0 10e-4,-10e-4 10e-4,-10e-4 0,0 -0.332333,-10e-4 -0.644833,-10e-4 -1,0 -0.665667,-0.667667 -1.331667,-1.333667 -2,-2 0.001,-1.001 0.001,-2 0,-3 0.668333,-1.002 1.334333,-2.001 2,-3 0.667667,-10e-4 1.334333,-10e-4 2,0 z"
       inkscape:connector-curvature="0"
       id="path4793"
       d="m 33.000423,48.499885 c 0.66609,0.499884 1.33209,1.498884 1.665833,2.4995 C 35,52 35,52.999 34.666333,53.833167 34.332667,54.667333 33.666667,55.333333 33.15575,55.666666 32.644833,56 32.332333,56 32.166167,56 32,56 32,56 31.833833,56 31.667667,56 31.355167,56 30.84425,55.666666 30.333333,55.333333 29.667333,54.667333 29.333666,53.833167 29,52.999 29,52 29.334051,50.998923 c 0.334051,-1.001077 1.000051,-2.000077 1.666834,-2.4995 C 31.667667,48 32.334333,48 33.000423,48.499885 Z"
       style="fill:#000000;fill-opacity:0.97014926;stroke:#000000;stroke-width:1px;stroke-linecap:butt;stroke-linejoin:round;stroke-opacity:1"
       sodipodi:nodetypes="sccccccccas"
       inkscape:path-effect="#path-effect4795"
       inkscape:export-xdpi="141.63943"
       inkscape:export-ydpi="141.63943" />
    <g
       id="g4870"
       transform="matrix(-1,0,0,1,62,0)"
       inkscape:export-xdpi="141.63943"
       inkscape:export-ydpi="141.63943">
      <path
         sodipodi:nodetypes="ccczcccc"
         inkscape:original-d="M 54,44 C 53.810589,43.681648 48.000471,33.998118 45,29 40.597943,29.337559 36.196887,29.676119 31.79683,30.015678 31.863553,34.009452 31.931277,38.004218 32,42 c 2.332338,0.999002 4.912878,2.104948 7,3 0.595035,1.489087 2,5 2,5 0,0 3.999981,-2.666987 6,-4 2.334333,-0.667667 6.852903,-1.958686 7,-2 z"
         inkscape:path-effect="#path-effect4858"
         inkscape:connector-curvature="0"
         id="path4866"
         d="m 53.831252,43.862164 c -0.02184,-0.17981 -5.831958,-9.86334 -9.532592,-12.193437 -3.700635,-2.330097 -8.101691,-1.991538 -10.267907,0.174585 -2.166217,2.166123 -2.098494,6.160889 -0.898558,8.658531 1.199936,2.497642 3.780476,3.603588 5.121917,4.795312 C 39.595552,46.48888 40.333333,48.333333 41,50 c 2,-1.333333 4.000135,-2.666756 6.167328,-3.666881 2.167194,-1.000125 6.685764,-2.291145 6.663924,-2.470955 z"
         style="fill:#000000;fill-opacity:1;stroke:#000000;stroke-width:1px;stroke-linecap:butt;stroke-linejoin:miter;stroke-opacity:1" />
      <circle
         r="3.5"
         cy="37"
         cx="-39"
         id="circle4868"
         style="opacity:1;fill:#ffffff;fill-opacity:0.94029852;stroke:none;stroke-width:0;stroke-linecap:round;stroke-linejoin:round;stroke-miterlimit:4;stroke-dasharray:none;stroke-dashoffset:0;stroke-opacity:1;paint-order:markers fill stroke"
         transform="scale(-1,1)" />
    </g>
    <path
       style="fill:#150000;fill-opacity:1;stroke:#000000;stroke-width:0;stroke-linecap:butt;stroke-linejoin:miter;stroke-miterlimit:4;stroke-dasharray:none;stroke-opacity:1"
       d="m 50.051019,10.015318 c -0.499423,1.16e-4 -1.499423,0.666782 -2,1.0005 -0.500577,0.333718 -2.500577,2.333718 -2.500577,2.667052 0,0.333333 0,0.998999 0.50075,1.833583 0.50075,0.834583 1.49925,1.833083 1.99925,2.333083 0.5,0.5 1.5,-0.5 1.333745,-1.165019 -0.166255,-0.66502 -0.500588,-2.002354 -0.33351,-3.002324 0.167079,-0.999971 0.834098,-1.66699 1.166931,-2.333657 0.332834,-0.666667 0.332834,-1.333333 -0.166589,-1.333218 z"
       id="path4896"
       inkscape:connector-curvature="0"
       inkscape:path-effect="#path-effect4898"
       inkscape:original-d="m 50.550442,9.3495364 c -0.999,0.6656666 -1.999,1.3323326 -3,1.9999996 l -2,2 c 0.001,0.666667 0.001,1.332333 0,2 1.0025,1.0005 2.001,1.999 3,3 l 1,-1 c -0.331333,-1.330333 -0.665667,-2.667667 -1,-4 0.667314,-0.667314 1.334333,-1.334333 2,-2 0.001,-0.667667 0.001,-1.334333 0,-1.9999996 z"
       sodipodi:nodetypes="ccccccccc"
       inkscape:export-xdpi="141.63943"
       inkscape:export-ydpi="141.63943" />
    <path
       sodipodi:nodetypes="ccccccccc"
       inkscape:original-d="m 13.449558,9.3495368 c 0.999,0.6656662 1.999,1.3323322 3,1.9999992 l 2,2 c -0.001,0.666667 -0.001,1.332333 0,2 -1.0025,1.0005 -2.001,1.999 -3,3 l -1,-1 c 0.331333,-1.330333 0.665667,-2.667667 1,-4 -0.667314,-0.667314 -1.334333,-1.334333 -2,-2 -10e-4,-0.667667 -10e-4,-1.334333 0,-1.9999992 z"
       inkscape:path-effect="#path-effect4906"
       inkscape:connector-curvature="0"
       id="path4904"
       d="m 13.948981,10.015318 c 0.499423,1.16e-4 1.499423,0.666782 2,1.0005 0.500577,0.333718 2.500577,2.333718 2.500577,2.667051 0,0.333334 0,0.999 -0.50075,1.833584 -0.50075,0.834583 -1.49925,1.833083 -1.99925,2.333083 -0.5,0.5 -1.5,-0.5 -1.333745,-1.165019 0.166255,-0.66502 0.500588,-2.002354 0.33351,-3.002324 -0.167079,-0.999971 -0.834098,-1.66699 -1.166932,-2.333657 -0.332833,-0.666667 -0.332833,-1.333333 0.16659,-1.333218 z"
       style="fill:#150000;fill-opacity:1;stroke:#000000;stroke-width:0;stroke-linecap:butt;stroke-linejoin:miter;stroke-miterlimit:4;stroke-dasharray:none;stroke-opacity:1"
       inkscape:export-xdpi="141.63943"
       inkscape:export-ydpi="141.63943" />
  </g>
</svg>
